<svg width="39" height="30" viewBox="0 0 39 30" fill="none" xmlns="http://www.w3.org/2000/svg">
<path d="M3.73178 26.4145C4.26959 25.7309 5.29952 24.4659 3.85595 24.2422C3.52941 24.1916 3.22439 23.9997 2.90397 24.1449C1.91701 24.5922 1 25.5771 1 26.748C1 28.6182 3.05116 29.0232 4.54119 28.999C7.05513 28.9582 7.81996 26.5088 8.70785 24.5247C9.60474 22.5206 10.601 20.5489 11.5316 18.5591C12.5846 16.3075 14.3115 14.514 15.4039 12.2831C15.8723 11.3264 16.484 10.484 17.0871 9.61056C18.0227 8.25564 18.6899 6.88873 19.359 5.38641C19.908 4.15385 20.5168 3.02829 21.1894 1.86166C21.4614 1.38989 21.3592 0.667169 21.8793 1.17154C22.2741 1.55448 22.9023 1.80604 23.4337 1.90335C25.757 2.32878 27.8935 2.77908 30.2861 2.58885C32.706 2.39645 35.1245 2.04973 37.5065 1.58839C38.3163 1.43155 37.9711 1.62037 37.5893 2.11178C36.9416 2.94528 36.3886 3.82859 35.7681 4.67313C34.9589 5.77448 34.6741 7.10086 34.1953 8.35999C33.6689 9.74409 33.0425 11.0662 32.5396 12.473C31.5678 15.1918 30.1501 17.6713 28.396 19.9532C27.3794 21.2757 26.1237 23.5854 24.2201 23.4919C21.2744 23.3471 23.2635 17.5485 24.6708 16.4146C25.4284 15.8042 26.257 16.4613 26.3494 17.2807C26.4765 18.4066 26.0903 19.9494 24.9973 20.4998C23.8443 21.0804 22.9602 21.0107 23.8476 19.5132C24.3845 18.6071 24.7038 19.6043 24.9238 19.1612" stroke="#00ADB5" stroke-linecap="round" stroke-linejoin="round"/>
</svg>
